<mxfile host="Electron" modified="2023-10-31T14:29:37.678Z" agent="Mozilla/5.0 (Windows NT 10.0; Win64; x64) AppleWebKit/537.36 (KHTML, like Gecko) draw.io/22.0.3 Chrome/114.0.5735.289 Electron/25.8.4 Safari/537.36" etag="MZjO3tzyLzfj6swuT6Ek" version="22.0.3" type="device" pages="2">
  <diagram name="DB" id="PNXU-fOgEUNji56self5">
    <mxGraphModel dx="1668" dy="563" grid="1" gridSize="10" guides="1" tooltips="1" connect="1" arrows="1" fold="1" page="1" pageScale="1" pageWidth="827" pageHeight="1169" math="0" shadow="0">
      <root>
        <mxCell id="0" />
        <mxCell id="1" parent="0" />
        <mxCell id="n_NUJyZ5mmnl74ECZZOq-1" value="AgentService" style="swimlane;fontStyle=0;childLayout=stackLayout;horizontal=1;startSize=26;fillColor=#cdeb8b;horizontalStack=0;resizeParent=1;resizeParentMax=0;resizeLast=0;collapsible=1;marginBottom=0;whiteSpace=wrap;html=1;strokeColor=#36393d;" parent="1" vertex="1">
          <mxGeometry x="-790" y="295" width="140" height="130" as="geometry" />
        </mxCell>
        <mxCell id="n_NUJyZ5mmnl74ECZZOq-2" value="id: int PK AI" style="text;strokeColor=#36393d;fillColor=#cdeb8b;align=left;verticalAlign=top;spacingLeft=4;spacingRight=4;overflow=hidden;rotatable=0;points=[[0,0.5],[1,0.5]];portConstraint=eastwest;whiteSpace=wrap;html=1;" parent="n_NUJyZ5mmnl74ECZZOq-1" vertex="1">
          <mxGeometry y="26" width="140" height="26" as="geometry" />
        </mxCell>
        <mxCell id="n_NUJyZ5mmnl74ECZZOq-3" value="name: varchar(100)" style="text;strokeColor=none;fillColor=none;align=left;verticalAlign=top;spacingLeft=4;spacingRight=4;overflow=hidden;rotatable=0;points=[[0,0.5],[1,0.5]];portConstraint=eastwest;whiteSpace=wrap;html=1;" parent="n_NUJyZ5mmnl74ECZZOq-1" vertex="1">
          <mxGeometry y="52" width="140" height="26" as="geometry" />
        </mxCell>
        <mxCell id="n_NUJyZ5mmnl74ECZZOq-5" value="desc: varchar(100)" style="text;strokeColor=none;fillColor=none;align=left;verticalAlign=top;spacingLeft=4;spacingRight=4;overflow=hidden;rotatable=0;points=[[0,0.5],[1,0.5]];portConstraint=eastwest;whiteSpace=wrap;html=1;" parent="n_NUJyZ5mmnl74ECZZOq-1" vertex="1">
          <mxGeometry y="78" width="140" height="26" as="geometry" />
        </mxCell>
        <mxCell id="di73BtMwwukk9KnVjVAe-37" value="agent_token: varchar" style="text;strokeColor=none;fillColor=none;align=left;verticalAlign=top;spacingLeft=4;spacingRight=4;overflow=hidden;rotatable=0;points=[[0,0.5],[1,0.5]];portConstraint=eastwest;whiteSpace=wrap;html=1;" parent="n_NUJyZ5mmnl74ECZZOq-1" vertex="1">
          <mxGeometry y="104" width="140" height="26" as="geometry" />
        </mxCell>
        <mxCell id="di73BtMwwukk9KnVjVAe-1" value="User" style="swimlane;fontStyle=0;childLayout=stackLayout;horizontal=1;startSize=26;fillColor=#cce5ff;horizontalStack=0;resizeParent=1;resizeParentMax=0;resizeLast=0;collapsible=1;marginBottom=0;whiteSpace=wrap;html=1;strokeColor=#36393d;" parent="1" vertex="1">
          <mxGeometry x="-376" y="321" width="140" height="130" as="geometry" />
        </mxCell>
        <mxCell id="di73BtMwwukk9KnVjVAe-2" value="id: int PK AI" style="text;strokeColor=#36393d;fillColor=#cce5ff;align=left;verticalAlign=top;spacingLeft=4;spacingRight=4;overflow=hidden;rotatable=0;points=[[0,0.5],[1,0.5]];portConstraint=eastwest;whiteSpace=wrap;html=1;" parent="di73BtMwwukk9KnVjVAe-1" vertex="1">
          <mxGeometry y="26" width="140" height="26" as="geometry" />
        </mxCell>
        <mxCell id="di73BtMwwukk9KnVjVAe-3" value="username: varchar(100)" style="text;strokeColor=none;fillColor=none;align=left;verticalAlign=top;spacingLeft=4;spacingRight=4;overflow=hidden;rotatable=0;points=[[0,0.5],[1,0.5]];portConstraint=eastwest;whiteSpace=wrap;html=1;" parent="di73BtMwwukk9KnVjVAe-1" vertex="1">
          <mxGeometry y="52" width="140" height="26" as="geometry" />
        </mxCell>
        <mxCell id="di73BtMwwukk9KnVjVAe-29" value="tg_id: int" style="text;strokeColor=none;fillColor=none;align=left;verticalAlign=top;spacingLeft=4;spacingRight=4;overflow=hidden;rotatable=0;points=[[0,0.5],[1,0.5]];portConstraint=eastwest;whiteSpace=wrap;html=1;" parent="di73BtMwwukk9KnVjVAe-1" vertex="1">
          <mxGeometry y="78" width="140" height="26" as="geometry" />
        </mxCell>
        <mxCell id="di73BtMwwukk9KnVjVAe-30" value="username: varchar(100)" style="text;strokeColor=none;fillColor=none;align=left;verticalAlign=top;spacingLeft=4;spacingRight=4;overflow=hidden;rotatable=0;points=[[0,0.5],[1,0.5]];portConstraint=eastwest;whiteSpace=wrap;html=1;" parent="di73BtMwwukk9KnVjVAe-1" vertex="1">
          <mxGeometry y="104" width="140" height="26" as="geometry" />
        </mxCell>
        <mxCell id="di73BtMwwukk9KnVjVAe-7" value="User_Services" style="swimlane;fontStyle=0;childLayout=stackLayout;horizontal=1;startSize=26;fillColor=#0050ef;horizontalStack=0;resizeParent=1;resizeParentMax=0;resizeLast=0;collapsible=1;marginBottom=0;whiteSpace=wrap;html=1;strokeColor=#001DBC;fontColor=#ffffff;" parent="1" vertex="1">
          <mxGeometry x="-580" y="269" width="140" height="156" as="geometry" />
        </mxCell>
        <mxCell id="di73BtMwwukk9KnVjVAe-8" value="id: int PK AI" style="text;strokeColor=#001DBC;fillColor=#0050ef;align=left;verticalAlign=top;spacingLeft=4;spacingRight=4;overflow=hidden;rotatable=0;points=[[0,0.5],[1,0.5]];portConstraint=eastwest;whiteSpace=wrap;html=1;fontColor=#ffffff;" parent="di73BtMwwukk9KnVjVAe-7" vertex="1">
          <mxGeometry y="26" width="140" height="26" as="geometry" />
        </mxCell>
        <mxCell id="di73BtMwwukk9KnVjVAe-9" value="service_id: id" style="text;strokeColor=#36393d;fillColor=#cdeb8b;align=left;verticalAlign=top;spacingLeft=4;spacingRight=4;overflow=hidden;rotatable=0;points=[[0,0.5],[1,0.5]];portConstraint=eastwest;whiteSpace=wrap;html=1;" parent="di73BtMwwukk9KnVjVAe-7" vertex="1">
          <mxGeometry y="52" width="140" height="26" as="geometry" />
        </mxCell>
        <mxCell id="di73BtMwwukk9KnVjVAe-11" value="user_id: int" style="text;strokeColor=#36393d;fillColor=#cce5ff;align=left;verticalAlign=top;spacingLeft=4;spacingRight=4;overflow=hidden;rotatable=0;points=[[0,0.5],[1,0.5]];portConstraint=eastwest;whiteSpace=wrap;html=1;" parent="di73BtMwwukk9KnVjVAe-7" vertex="1">
          <mxGeometry y="78" width="140" height="26" as="geometry" />
        </mxCell>
        <mxCell id="di73BtMwwukk9KnVjVAe-33" value="period: int" style="text;strokeColor=none;fillColor=none;align=left;verticalAlign=top;spacingLeft=4;spacingRight=4;overflow=hidden;rotatable=0;points=[[0,0.5],[1,0.5]];portConstraint=eastwest;whiteSpace=wrap;html=1;" parent="di73BtMwwukk9KnVjVAe-7" vertex="1">
          <mxGeometry y="104" width="140" height="26" as="geometry" />
        </mxCell>
        <mxCell id="di73BtMwwukk9KnVjVAe-38" value="identifier: varchar" style="text;strokeColor=none;fillColor=none;align=left;verticalAlign=top;spacingLeft=4;spacingRight=4;overflow=hidden;rotatable=0;points=[[0,0.5],[1,0.5]];portConstraint=eastwest;whiteSpace=wrap;html=1;" parent="di73BtMwwukk9KnVjVAe-7" vertex="1">
          <mxGeometry y="130" width="140" height="26" as="geometry" />
        </mxCell>
        <mxCell id="di73BtMwwukk9KnVjVAe-12" style="edgeStyle=orthogonalEdgeStyle;rounded=0;orthogonalLoop=1;jettySize=auto;html=1;exitX=0;exitY=0.5;exitDx=0;exitDy=0;entryX=1;entryY=0.5;entryDx=0;entryDy=0;" parent="1" source="di73BtMwwukk9KnVjVAe-2" target="di73BtMwwukk9KnVjVAe-11" edge="1">
          <mxGeometry relative="1" as="geometry">
            <Array as="points">
              <mxPoint x="-430" y="360" />
            </Array>
          </mxGeometry>
        </mxCell>
        <mxCell id="di73BtMwwukk9KnVjVAe-19" value="TempCode" style="swimlane;fontStyle=0;childLayout=stackLayout;horizontal=1;startSize=26;fillColor=#ffcc99;horizontalStack=0;resizeParent=1;resizeParentMax=0;resizeLast=0;collapsible=1;marginBottom=0;whiteSpace=wrap;html=1;strokeColor=#36393d;" parent="1" vertex="1">
          <mxGeometry x="-790" y="511" width="140" height="130" as="geometry" />
        </mxCell>
        <mxCell id="di73BtMwwukk9KnVjVAe-20" value="id: int PK AI" style="text;strokeColor=none;fillColor=none;align=left;verticalAlign=top;spacingLeft=4;spacingRight=4;overflow=hidden;rotatable=0;points=[[0,0.5],[1,0.5]];portConstraint=eastwest;whiteSpace=wrap;html=1;" parent="di73BtMwwukk9KnVjVAe-19" vertex="1">
          <mxGeometry y="26" width="140" height="26" as="geometry" />
        </mxCell>
        <mxCell id="di73BtMwwukk9KnVjVAe-21" value="code: varchar(5)" style="text;strokeColor=none;fillColor=none;align=left;verticalAlign=top;spacingLeft=4;spacingRight=4;overflow=hidden;rotatable=0;points=[[0,0.5],[1,0.5]];portConstraint=eastwest;whiteSpace=wrap;html=1;" parent="di73BtMwwukk9KnVjVAe-19" vertex="1">
          <mxGeometry y="52" width="140" height="26" as="geometry" />
        </mxCell>
        <mxCell id="di73BtMwwukk9KnVjVAe-22" value="exp: datetime" style="text;strokeColor=none;fillColor=none;align=left;verticalAlign=top;spacingLeft=4;spacingRight=4;overflow=hidden;rotatable=0;points=[[0,0.5],[1,0.5]];portConstraint=eastwest;whiteSpace=wrap;html=1;" parent="di73BtMwwukk9KnVjVAe-19" vertex="1">
          <mxGeometry y="78" width="140" height="26" as="geometry" />
        </mxCell>
        <mxCell id="di73BtMwwukk9KnVjVAe-35" value="user_id: int" style="text;strokeColor=#36393d;fillColor=#cce5ff;align=left;verticalAlign=top;spacingLeft=4;spacingRight=4;overflow=hidden;rotatable=0;points=[[0,0.5],[1,0.5]];portConstraint=eastwest;whiteSpace=wrap;html=1;" parent="di73BtMwwukk9KnVjVAe-19" vertex="1">
          <mxGeometry y="104" width="140" height="26" as="geometry" />
        </mxCell>
        <mxCell id="di73BtMwwukk9KnVjVAe-36" style="edgeStyle=orthogonalEdgeStyle;rounded=0;orthogonalLoop=1;jettySize=auto;html=1;exitX=0;exitY=0.5;exitDx=0;exitDy=0;entryX=1;entryY=0.5;entryDx=0;entryDy=0;" parent="1" source="di73BtMwwukk9KnVjVAe-2" target="di73BtMwwukk9KnVjVAe-35" edge="1">
          <mxGeometry relative="1" as="geometry">
            <Array as="points">
              <mxPoint x="-400" y="360" />
              <mxPoint x="-400" y="628" />
            </Array>
          </mxGeometry>
        </mxCell>
        <mxCell id="EWpNSMN1CdPp3rrMKJ8s-3" style="edgeStyle=orthogonalEdgeStyle;rounded=0;orthogonalLoop=1;jettySize=auto;html=1;exitX=1;exitY=0.5;exitDx=0;exitDy=0;entryX=0;entryY=0.5;entryDx=0;entryDy=0;" edge="1" parent="1" source="n_NUJyZ5mmnl74ECZZOq-2" target="di73BtMwwukk9KnVjVAe-9">
          <mxGeometry relative="1" as="geometry" />
        </mxCell>
        <mxCell id="EWpNSMN1CdPp3rrMKJ8s-4" value="CustomSecret" style="swimlane;fontStyle=0;childLayout=stackLayout;horizontal=1;startSize=26;fillColor=#ffff88;horizontalStack=0;resizeParent=1;resizeParentMax=0;resizeLast=0;collapsible=1;marginBottom=0;whiteSpace=wrap;html=1;strokeColor=#36393d;" vertex="1" parent="1">
          <mxGeometry x="-180" y="295" width="140" height="130" as="geometry" />
        </mxCell>
        <mxCell id="EWpNSMN1CdPp3rrMKJ8s-5" value="id: int PK AI" style="text;strokeColor=#36393d;fillColor=#ffff88;align=left;verticalAlign=top;spacingLeft=4;spacingRight=4;overflow=hidden;rotatable=0;points=[[0,0.5],[1,0.5]];portConstraint=eastwest;whiteSpace=wrap;html=1;" vertex="1" parent="EWpNSMN1CdPp3rrMKJ8s-4">
          <mxGeometry y="26" width="140" height="26" as="geometry" />
        </mxCell>
        <mxCell id="EWpNSMN1CdPp3rrMKJ8s-9" value="user_id: int" style="text;strokeColor=#36393d;fillColor=#cce5ff;align=left;verticalAlign=top;spacingLeft=4;spacingRight=4;overflow=hidden;rotatable=0;points=[[0,0.5],[1,0.5]];portConstraint=eastwest;whiteSpace=wrap;html=1;" vertex="1" parent="EWpNSMN1CdPp3rrMKJ8s-4">
          <mxGeometry y="52" width="140" height="26" as="geometry" />
        </mxCell>
        <mxCell id="EWpNSMN1CdPp3rrMKJ8s-6" value="identifier: varchar(100)" style="text;strokeColor=none;fillColor=none;align=left;verticalAlign=top;spacingLeft=4;spacingRight=4;overflow=hidden;rotatable=0;points=[[0,0.5],[1,0.5]];portConstraint=eastwest;whiteSpace=wrap;html=1;" vertex="1" parent="EWpNSMN1CdPp3rrMKJ8s-4">
          <mxGeometry y="78" width="140" height="26" as="geometry" />
        </mxCell>
        <mxCell id="EWpNSMN1CdPp3rrMKJ8s-10" value="desc: varchar(100)" style="text;strokeColor=none;fillColor=none;align=left;verticalAlign=top;spacingLeft=4;spacingRight=4;overflow=hidden;rotatable=0;points=[[0,0.5],[1,0.5]];portConstraint=eastwest;whiteSpace=wrap;html=1;" vertex="1" parent="EWpNSMN1CdPp3rrMKJ8s-4">
          <mxGeometry y="104" width="140" height="26" as="geometry" />
        </mxCell>
        <mxCell id="EWpNSMN1CdPp3rrMKJ8s-11" style="edgeStyle=orthogonalEdgeStyle;rounded=0;orthogonalLoop=1;jettySize=auto;html=1;exitX=1;exitY=0.5;exitDx=0;exitDy=0;entryX=0;entryY=0.5;entryDx=0;entryDy=0;" edge="1" parent="1" source="di73BtMwwukk9KnVjVAe-2" target="EWpNSMN1CdPp3rrMKJ8s-9">
          <mxGeometry relative="1" as="geometry" />
        </mxCell>
        <mxCell id="EWpNSMN1CdPp3rrMKJ8s-13" value="ServiceLogs" style="swimlane;fontStyle=0;childLayout=stackLayout;horizontal=1;startSize=26;fillColor=#b1ddf0;horizontalStack=0;resizeParent=1;resizeParentMax=0;resizeLast=0;collapsible=1;marginBottom=0;whiteSpace=wrap;html=1;strokeColor=#10739e;" vertex="1" parent="1">
          <mxGeometry x="-580" y="50" width="150" height="182" as="geometry" />
        </mxCell>
        <mxCell id="EWpNSMN1CdPp3rrMKJ8s-14" value="id: int PK AI" style="text;strokeColor=#10739e;fillColor=#b1ddf0;align=left;verticalAlign=top;spacingLeft=4;spacingRight=4;overflow=hidden;rotatable=0;points=[[0,0.5],[1,0.5]];portConstraint=eastwest;whiteSpace=wrap;html=1;" vertex="1" parent="EWpNSMN1CdPp3rrMKJ8s-13">
          <mxGeometry y="26" width="150" height="26" as="geometry" />
        </mxCell>
        <mxCell id="EWpNSMN1CdPp3rrMKJ8s-22" value="datetime: datetime" style="text;strokeColor=none;fillColor=none;align=left;verticalAlign=top;spacingLeft=4;spacingRight=4;overflow=hidden;rotatable=0;points=[[0,0.5],[1,0.5]];portConstraint=eastwest;whiteSpace=wrap;html=1;" vertex="1" parent="EWpNSMN1CdPp3rrMKJ8s-13">
          <mxGeometry y="52" width="150" height="26" as="geometry" />
        </mxCell>
        <mxCell id="EWpNSMN1CdPp3rrMKJ8s-15" value="ip: varchar(100)" style="text;strokeColor=none;fillColor=none;align=left;verticalAlign=top;spacingLeft=4;spacingRight=4;overflow=hidden;rotatable=0;points=[[0,0.5],[1,0.5]];portConstraint=eastwest;whiteSpace=wrap;html=1;" vertex="1" parent="EWpNSMN1CdPp3rrMKJ8s-13">
          <mxGeometry y="78" width="150" height="26" as="geometry" />
        </mxCell>
        <mxCell id="EWpNSMN1CdPp3rrMKJ8s-16" value="status: varchar(100)" style="text;strokeColor=none;fillColor=none;align=left;verticalAlign=top;spacingLeft=4;spacingRight=4;overflow=hidden;rotatable=0;points=[[0,0.5],[1,0.5]];portConstraint=eastwest;whiteSpace=wrap;html=1;" vertex="1" parent="EWpNSMN1CdPp3rrMKJ8s-13">
          <mxGeometry y="104" width="150" height="26" as="geometry" />
        </mxCell>
        <mxCell id="EWpNSMN1CdPp3rrMKJ8s-19" value="annotation: varchar(100)" style="text;strokeColor=none;fillColor=none;align=left;verticalAlign=top;spacingLeft=4;spacingRight=4;overflow=hidden;rotatable=0;points=[[0,0.5],[1,0.5]];portConstraint=eastwest;whiteSpace=wrap;html=1;" vertex="1" parent="EWpNSMN1CdPp3rrMKJ8s-13">
          <mxGeometry y="130" width="150" height="26" as="geometry" />
        </mxCell>
        <mxCell id="EWpNSMN1CdPp3rrMKJ8s-17" value="user_service_id: int" style="text;strokeColor=#001DBC;fillColor=#0050ef;align=left;verticalAlign=top;spacingLeft=4;spacingRight=4;overflow=hidden;rotatable=0;points=[[0,0.5],[1,0.5]];portConstraint=eastwest;whiteSpace=wrap;html=1;fontColor=#ffffff;" vertex="1" parent="EWpNSMN1CdPp3rrMKJ8s-13">
          <mxGeometry y="156" width="150" height="26" as="geometry" />
        </mxCell>
        <mxCell id="EWpNSMN1CdPp3rrMKJ8s-18" style="edgeStyle=orthogonalEdgeStyle;rounded=0;orthogonalLoop=1;jettySize=auto;html=1;exitX=0;exitY=0.5;exitDx=0;exitDy=0;entryX=0;entryY=0.5;entryDx=0;entryDy=0;" edge="1" parent="1" source="di73BtMwwukk9KnVjVAe-8" target="EWpNSMN1CdPp3rrMKJ8s-17">
          <mxGeometry relative="1" as="geometry" />
        </mxCell>
      </root>
    </mxGraphModel>
  </diagram>
  <diagram id="Ub5FMRVoIs5shUYVoKEP" name="Страница 2">
    <mxGraphModel dx="1903" dy="587" grid="1" gridSize="10" guides="1" tooltips="1" connect="1" arrows="1" fold="1" page="1" pageScale="1" pageWidth="827" pageHeight="1169" math="0" shadow="0">
      <root>
        <mxCell id="AUfAbRyZPVYMz74NTfJ3-0" />
        <mxCell id="AUfAbRyZPVYMz74NTfJ3-1" parent="AUfAbRyZPVYMz74NTfJ3-0" />
        <mxCell id="2MJfzrfArd-E8yeCpsAq-12" value="Agent" style="swimlane;fontStyle=0;childLayout=stackLayout;horizontal=1;startSize=26;fillColor=none;horizontalStack=0;resizeParent=1;resizeParentMax=0;resizeLast=0;collapsible=1;marginBottom=0;" parent="AUfAbRyZPVYMz74NTfJ3-1" vertex="1">
          <mxGeometry x="400" y="680" width="186" height="260" as="geometry" />
        </mxCell>
        <mxCell id="2MJfzrfArd-E8yeCpsAq-13" value="+ generator: Generator" style="text;strokeColor=#82b366;fillColor=#d5e8d4;align=left;verticalAlign=top;spacingLeft=4;spacingRight=4;overflow=hidden;rotatable=0;points=[[0,0.5],[1,0.5]];portConstraint=eastwest;" parent="2MJfzrfArd-E8yeCpsAq-12" vertex="1">
          <mxGeometry y="26" width="186" height="26" as="geometry" />
        </mxCell>
        <mxCell id="2MJfzrfArd-E8yeCpsAq-14" value="+ connector: Connector" style="text;strokeColor=#82b366;fillColor=#d5e8d4;align=left;verticalAlign=top;spacingLeft=4;spacingRight=4;overflow=hidden;rotatable=0;points=[[0,0.5],[1,0.5]];portConstraint=eastwest;" parent="2MJfzrfArd-E8yeCpsAq-12" vertex="1">
          <mxGeometry y="52" width="186" height="26" as="geometry" />
        </mxCell>
        <mxCell id="2MJfzrfArd-E8yeCpsAq-15" value="- token: str" style="text;align=left;verticalAlign=top;spacingLeft=4;spacingRight=4;overflow=hidden;rotatable=0;points=[[0,0.5],[1,0.5]];portConstraint=eastwest;" parent="2MJfzrfArd-E8yeCpsAq-12" vertex="1">
          <mxGeometry y="78" width="186" height="26" as="geometry" />
        </mxCell>
        <mxCell id="2MJfzrfArd-E8yeCpsAq-16" value="- old_secrets: list[Secret]" style="text;align=left;verticalAlign=top;spacingLeft=4;spacingRight=4;overflow=hidden;rotatable=0;points=[[0,0.5],[1,0.5]];portConstraint=eastwest;" parent="2MJfzrfArd-E8yeCpsAq-12" vertex="1">
          <mxGeometry y="104" width="186" height="26" as="geometry" />
        </mxCell>
        <mxCell id="2MJfzrfArd-E8yeCpsAq-17" value="- new_secrets: list[SecretStatus]" style="text;align=left;verticalAlign=top;spacingLeft=4;spacingRight=4;overflow=hidden;rotatable=0;points=[[0,0.5],[1,0.5]];portConstraint=eastwest;" parent="2MJfzrfArd-E8yeCpsAq-12" vertex="1">
          <mxGeometry y="130" width="186" height="26" as="geometry" />
        </mxCell>
        <mxCell id="2MJfzrfArd-E8yeCpsAq-18" value="+ start" style="text;strokeColor=#6c8ebf;fillColor=#dae8fc;align=left;verticalAlign=top;spacingLeft=4;spacingRight=4;overflow=hidden;rotatable=0;points=[[0,0.5],[1,0.5]];portConstraint=eastwest;" parent="2MJfzrfArd-E8yeCpsAq-12" vertex="1">
          <mxGeometry y="156" width="186" height="26" as="geometry" />
        </mxCell>
        <mxCell id="2MJfzrfArd-E8yeCpsAq-19" value="+ get_refresh_list" style="text;strokeColor=#6c8ebf;fillColor=#dae8fc;align=left;verticalAlign=top;spacingLeft=4;spacingRight=4;overflow=hidden;rotatable=0;points=[[0,0.5],[1,0.5]];portConstraint=eastwest;" parent="2MJfzrfArd-E8yeCpsAq-12" vertex="1">
          <mxGeometry y="182" width="186" height="26" as="geometry" />
        </mxCell>
        <mxCell id="2MJfzrfArd-E8yeCpsAq-20" value="+ regenerate_secrets" style="text;strokeColor=#6c8ebf;fillColor=#dae8fc;align=left;verticalAlign=top;spacingLeft=4;spacingRight=4;overflow=hidden;rotatable=0;points=[[0,0.5],[1,0.5]];portConstraint=eastwest;" parent="2MJfzrfArd-E8yeCpsAq-12" vertex="1">
          <mxGeometry y="208" width="186" height="26" as="geometry" />
        </mxCell>
        <mxCell id="2MJfzrfArd-E8yeCpsAq-21" value="+ send_new_secrets" style="text;strokeColor=#6c8ebf;fillColor=#dae8fc;align=left;verticalAlign=top;spacingLeft=4;spacingRight=4;overflow=hidden;rotatable=0;points=[[0,0.5],[1,0.5]];portConstraint=eastwest;" parent="2MJfzrfArd-E8yeCpsAq-12" vertex="1">
          <mxGeometry y="234" width="186" height="26" as="geometry" />
        </mxCell>
        <mxCell id="2MJfzrfArd-E8yeCpsAq-22" style="edgeStyle=orthogonalEdgeStyle;rounded=0;orthogonalLoop=1;jettySize=auto;html=1;entryX=0;entryY=0.5;entryDx=0;entryDy=0;exitX=0.5;exitY=0;exitDx=0;exitDy=0;" parent="AUfAbRyZPVYMz74NTfJ3-1" source="2MJfzrfArd-E8yeCpsAq-23" edge="1">
          <mxGeometry relative="1" as="geometry">
            <mxPoint x="664" y="952.9999999999998" as="targetPoint" />
            <Array as="points">
              <mxPoint x="640" y="953" />
            </Array>
          </mxGeometry>
        </mxCell>
        <mxCell id="2MJfzrfArd-E8yeCpsAq-50" style="edgeStyle=orthogonalEdgeStyle;rounded=0;orthogonalLoop=1;jettySize=auto;html=1;exitX=0.5;exitY=0;exitDx=0;exitDy=0;entryX=1;entryY=0.5;entryDx=0;entryDy=0;startArrow=classic;startFill=1;" parent="AUfAbRyZPVYMz74NTfJ3-1" source="2MJfzrfArd-E8yeCpsAq-23" target="2MJfzrfArd-E8yeCpsAq-46" edge="1">
          <mxGeometry relative="1" as="geometry" />
        </mxCell>
        <mxCell id="2MJfzrfArd-E8yeCpsAq-23" value="Secret" style="swimlane;fontStyle=0;childLayout=stackLayout;horizontal=1;startSize=26;fillColor=none;horizontalStack=0;resizeParent=1;resizeParentMax=0;resizeLast=0;collapsible=1;marginBottom=0;" parent="AUfAbRyZPVYMz74NTfJ3-1" vertex="1">
          <mxGeometry x="570" y="1080" width="140" height="104" as="geometry" />
        </mxCell>
        <mxCell id="2MJfzrfArd-E8yeCpsAq-24" value="+ username: str" style="text;strokeColor=#82b366;fillColor=#d5e8d4;align=left;verticalAlign=top;spacingLeft=4;spacingRight=4;overflow=hidden;rotatable=0;points=[[0,0.5],[1,0.5]];portConstraint=eastwest;" parent="2MJfzrfArd-E8yeCpsAq-23" vertex="1">
          <mxGeometry y="26" width="140" height="26" as="geometry" />
        </mxCell>
        <mxCell id="2MJfzrfArd-E8yeCpsAq-25" value="+ identifier: str" style="text;strokeColor=#82b366;fillColor=#d5e8d4;align=left;verticalAlign=top;spacingLeft=4;spacingRight=4;overflow=hidden;rotatable=0;points=[[0,0.5],[1,0.5]];portConstraint=eastwest;" parent="2MJfzrfArd-E8yeCpsAq-23" vertex="1">
          <mxGeometry y="52" width="140" height="26" as="geometry" />
        </mxCell>
        <mxCell id="2MJfzrfArd-E8yeCpsAq-26" value="+ secret: str" style="text;strokeColor=#82b366;fillColor=#d5e8d4;align=left;verticalAlign=top;spacingLeft=4;spacingRight=4;overflow=hidden;rotatable=0;points=[[0,0.5],[1,0.5]];portConstraint=eastwest;" parent="2MJfzrfArd-E8yeCpsAq-23" vertex="1">
          <mxGeometry y="78" width="140" height="26" as="geometry" />
        </mxCell>
        <mxCell id="2MJfzrfArd-E8yeCpsAq-27" style="edgeStyle=orthogonalEdgeStyle;rounded=0;orthogonalLoop=1;jettySize=auto;html=1;" parent="AUfAbRyZPVYMz74NTfJ3-1" source="2MJfzrfArd-E8yeCpsAq-28" target="2MJfzrfArd-E8yeCpsAq-13" edge="1">
          <mxGeometry relative="1" as="geometry" />
        </mxCell>
        <mxCell id="2MJfzrfArd-E8yeCpsAq-28" value="Generator" style="swimlane;fontStyle=0;childLayout=stackLayout;horizontal=1;startSize=26;fillColor=none;horizontalStack=0;resizeParent=1;resizeParentMax=0;resizeLast=0;collapsible=1;marginBottom=0;" parent="AUfAbRyZPVYMz74NTfJ3-1" vertex="1">
          <mxGeometry x="664" y="914" width="140" height="52" as="geometry" />
        </mxCell>
        <mxCell id="2MJfzrfArd-E8yeCpsAq-29" value="+ regenerate" style="text;strokeColor=#6c8ebf;fillColor=#dae8fc;align=left;verticalAlign=top;spacingLeft=4;spacingRight=4;overflow=hidden;rotatable=0;points=[[0,0.5],[1,0.5]];portConstraint=eastwest;" parent="2MJfzrfArd-E8yeCpsAq-28" vertex="1">
          <mxGeometry y="26" width="140" height="26" as="geometry" />
        </mxCell>
        <mxCell id="2MJfzrfArd-E8yeCpsAq-31" value="GET /api/agent/service" style="edgeStyle=orthogonalEdgeStyle;rounded=0;orthogonalLoop=1;jettySize=auto;html=1;exitX=0;exitY=0.5;exitDx=0;exitDy=0;startArrow=classic;startFill=1;" parent="AUfAbRyZPVYMz74NTfJ3-1" edge="1">
          <mxGeometry relative="1" as="geometry">
            <mxPoint x="209" y="920" as="sourcePoint" />
            <mxPoint x="-50" y="920" as="targetPoint" />
          </mxGeometry>
        </mxCell>
        <mxCell id="2MJfzrfArd-E8yeCpsAq-32" value="POST /api/agent/service" style="edgeStyle=orthogonalEdgeStyle;rounded=0;orthogonalLoop=1;jettySize=auto;html=1;exitX=0;exitY=0.5;exitDx=0;exitDy=0;startArrow=classic;startFill=1;" parent="AUfAbRyZPVYMz74NTfJ3-1" edge="1">
          <mxGeometry relative="1" as="geometry">
            <mxPoint x="209" y="945.9999999999998" as="sourcePoint" />
            <mxPoint x="-50" y="946" as="targetPoint" />
            <Array as="points">
              <mxPoint x="-40" y="946" />
              <mxPoint x="-40" y="946" />
            </Array>
          </mxGeometry>
        </mxCell>
        <mxCell id="2MJfzrfArd-E8yeCpsAq-33" style="edgeStyle=orthogonalEdgeStyle;rounded=0;orthogonalLoop=1;jettySize=auto;html=1;entryX=0;entryY=0.5;entryDx=0;entryDy=0;" parent="AUfAbRyZPVYMz74NTfJ3-1" source="2MJfzrfArd-E8yeCpsAq-34" target="2MJfzrfArd-E8yeCpsAq-14" edge="1">
          <mxGeometry relative="1" as="geometry">
            <Array as="points">
              <mxPoint x="280" y="745" />
            </Array>
          </mxGeometry>
        </mxCell>
        <mxCell id="2MJfzrfArd-E8yeCpsAq-34" value="Connector" style="swimlane;fontStyle=0;childLayout=stackLayout;horizontal=1;startSize=26;fillColor=none;horizontalStack=0;resizeParent=1;resizeParentMax=0;resizeLast=0;collapsible=1;marginBottom=0;" parent="AUfAbRyZPVYMz74NTfJ3-1" vertex="1">
          <mxGeometry x="210" y="854" width="140" height="130" as="geometry" />
        </mxCell>
        <mxCell id="2MJfzrfArd-E8yeCpsAq-35" value="- token: str" style="text;align=left;verticalAlign=top;spacingLeft=4;spacingRight=4;overflow=hidden;rotatable=0;points=[[0,0.5],[1,0.5]];portConstraint=eastwest;" parent="2MJfzrfArd-E8yeCpsAq-34" vertex="1">
          <mxGeometry y="26" width="140" height="26" as="geometry" />
        </mxCell>
        <mxCell id="2MJfzrfArd-E8yeCpsAq-36" value="+ collect_users" style="text;strokeColor=#6c8ebf;fillColor=#dae8fc;align=left;verticalAlign=top;spacingLeft=4;spacingRight=4;overflow=hidden;rotatable=0;points=[[0,0.5],[1,0.5]];portConstraint=eastwest;" parent="2MJfzrfArd-E8yeCpsAq-34" vertex="1">
          <mxGeometry y="52" width="140" height="26" as="geometry" />
        </mxCell>
        <mxCell id="2MJfzrfArd-E8yeCpsAq-37" value="+ send_secrets" style="text;strokeColor=#6c8ebf;fillColor=#dae8fc;align=left;verticalAlign=top;spacingLeft=4;spacingRight=4;overflow=hidden;rotatable=0;points=[[0,0.5],[1,0.5]];portConstraint=eastwest;" parent="2MJfzrfArd-E8yeCpsAq-34" vertex="1">
          <mxGeometry y="78" width="140" height="26" as="geometry" />
        </mxCell>
        <mxCell id="2MJfzrfArd-E8yeCpsAq-40" value="+ send_status" style="text;strokeColor=#6c8ebf;fillColor=#dae8fc;align=left;verticalAlign=top;spacingLeft=4;spacingRight=4;overflow=hidden;rotatable=0;points=[[0,0.5],[1,0.5]];portConstraint=eastwest;" parent="2MJfzrfArd-E8yeCpsAq-34" vertex="1">
          <mxGeometry y="104" width="140" height="26" as="geometry" />
        </mxCell>
        <mxCell id="2MJfzrfArd-E8yeCpsAq-38" value="ZABBIX" style="text;html=1;align=center;verticalAlign=middle;resizable=0;points=[];autosize=1;strokeColor=#b85450;fillColor=#f8cecc;" parent="AUfAbRyZPVYMz74NTfJ3-1" vertex="1">
          <mxGeometry x="463" y="610" width="60" height="20" as="geometry" />
        </mxCell>
        <mxCell id="2MJfzrfArd-E8yeCpsAq-42" style="edgeStyle=orthogonalEdgeStyle;rounded=0;orthogonalLoop=1;jettySize=auto;html=1;exitX=0;exitY=0.5;exitDx=0;exitDy=0;startArrow=classic;startFill=1;" parent="AUfAbRyZPVYMz74NTfJ3-1" source="2MJfzrfArd-E8yeCpsAq-40" edge="1">
          <mxGeometry relative="1" as="geometry">
            <mxPoint x="-50" y="971" as="targetPoint" />
          </mxGeometry>
        </mxCell>
        <mxCell id="2MJfzrfArd-E8yeCpsAq-44" value="POST /api/agent/service/status" style="edgeLabel;html=1;align=center;verticalAlign=middle;resizable=0;points=[];" parent="2MJfzrfArd-E8yeCpsAq-42" vertex="1" connectable="0">
          <mxGeometry x="0.2647" y="2" relative="1" as="geometry">
            <mxPoint x="34" y="-2" as="offset" />
          </mxGeometry>
        </mxCell>
        <mxCell id="2MJfzrfArd-E8yeCpsAq-45" value="SecretStatus" style="swimlane;fontStyle=0;childLayout=stackLayout;horizontal=1;startSize=26;fillColor=none;horizontalStack=0;resizeParent=1;resizeParentMax=0;resizeLast=0;collapsible=1;marginBottom=0;" parent="AUfAbRyZPVYMz74NTfJ3-1" vertex="1">
          <mxGeometry x="380" y="1010" width="140" height="104" as="geometry" />
        </mxCell>
        <mxCell id="2MJfzrfArd-E8yeCpsAq-46" value="+ secret: Secret" style="text;strokeColor=#82b366;fillColor=#d5e8d4;align=left;verticalAlign=top;spacingLeft=4;spacingRight=4;overflow=hidden;rotatable=0;points=[[0,0.5],[1,0.5]];portConstraint=eastwest;" parent="2MJfzrfArd-E8yeCpsAq-45" vertex="1">
          <mxGeometry y="26" width="140" height="26" as="geometry" />
        </mxCell>
        <mxCell id="2MJfzrfArd-E8yeCpsAq-47" value="+ ok: bool" style="text;strokeColor=#82b366;fillColor=#d5e8d4;align=left;verticalAlign=top;spacingLeft=4;spacingRight=4;overflow=hidden;rotatable=0;points=[[0,0.5],[1,0.5]];portConstraint=eastwest;" parent="2MJfzrfArd-E8yeCpsAq-45" vertex="1">
          <mxGeometry y="52" width="140" height="26" as="geometry" />
        </mxCell>
        <mxCell id="2MJfzrfArd-E8yeCpsAq-48" value="+ errors: list[str]" style="text;strokeColor=#82b366;fillColor=#d5e8d4;align=left;verticalAlign=top;spacingLeft=4;spacingRight=4;overflow=hidden;rotatable=0;points=[[0,0.5],[1,0.5]];portConstraint=eastwest;" parent="2MJfzrfArd-E8yeCpsAq-45" vertex="1">
          <mxGeometry y="78" width="140" height="26" as="geometry" />
        </mxCell>
        <mxCell id="2MJfzrfArd-E8yeCpsAq-51" style="edgeStyle=orthogonalEdgeStyle;rounded=0;orthogonalLoop=1;jettySize=auto;html=1;entryX=0.5;entryY=0;entryDx=0;entryDy=0;startArrow=none;startFill=0;" parent="AUfAbRyZPVYMz74NTfJ3-1" source="2MJfzrfArd-E8yeCpsAq-17" target="2MJfzrfArd-E8yeCpsAq-45" edge="1">
          <mxGeometry relative="1" as="geometry">
            <Array as="points">
              <mxPoint x="610" y="823" />
              <mxPoint x="610" y="970" />
              <mxPoint x="450" y="970" />
            </Array>
          </mxGeometry>
        </mxCell>
        <mxCell id="2MJfzrfArd-E8yeCpsAq-52" value="Agent" style="swimlane;fontStyle=0;childLayout=stackLayout;horizontal=1;startSize=26;fillColor=none;horizontalStack=0;resizeParent=1;resizeParentMax=0;resizeLast=0;collapsible=1;marginBottom=0;" parent="AUfAbRyZPVYMz74NTfJ3-1" vertex="1">
          <mxGeometry x="394" y="10" width="186" height="260" as="geometry" />
        </mxCell>
        <mxCell id="2MJfzrfArd-E8yeCpsAq-53" value="+ generator: Generator" style="text;strokeColor=#82b366;fillColor=#d5e8d4;align=left;verticalAlign=top;spacingLeft=4;spacingRight=4;overflow=hidden;rotatable=0;points=[[0,0.5],[1,0.5]];portConstraint=eastwest;" parent="2MJfzrfArd-E8yeCpsAq-52" vertex="1">
          <mxGeometry y="26" width="186" height="26" as="geometry" />
        </mxCell>
        <mxCell id="2MJfzrfArd-E8yeCpsAq-54" value="+ connector: Connector" style="text;strokeColor=#82b366;fillColor=#d5e8d4;align=left;verticalAlign=top;spacingLeft=4;spacingRight=4;overflow=hidden;rotatable=0;points=[[0,0.5],[1,0.5]];portConstraint=eastwest;" parent="2MJfzrfArd-E8yeCpsAq-52" vertex="1">
          <mxGeometry y="52" width="186" height="26" as="geometry" />
        </mxCell>
        <mxCell id="2MJfzrfArd-E8yeCpsAq-55" value="- token: str" style="text;align=left;verticalAlign=top;spacingLeft=4;spacingRight=4;overflow=hidden;rotatable=0;points=[[0,0.5],[1,0.5]];portConstraint=eastwest;" parent="2MJfzrfArd-E8yeCpsAq-52" vertex="1">
          <mxGeometry y="78" width="186" height="26" as="geometry" />
        </mxCell>
        <mxCell id="2MJfzrfArd-E8yeCpsAq-56" value="- old_secrets: list[Secret]" style="text;align=left;verticalAlign=top;spacingLeft=4;spacingRight=4;overflow=hidden;rotatable=0;points=[[0,0.5],[1,0.5]];portConstraint=eastwest;" parent="2MJfzrfArd-E8yeCpsAq-52" vertex="1">
          <mxGeometry y="104" width="186" height="26" as="geometry" />
        </mxCell>
        <mxCell id="2MJfzrfArd-E8yeCpsAq-57" value="- new_secrets: list[SecretStatus]" style="text;align=left;verticalAlign=top;spacingLeft=4;spacingRight=4;overflow=hidden;rotatable=0;points=[[0,0.5],[1,0.5]];portConstraint=eastwest;" parent="2MJfzrfArd-E8yeCpsAq-52" vertex="1">
          <mxGeometry y="130" width="186" height="26" as="geometry" />
        </mxCell>
        <mxCell id="2MJfzrfArd-E8yeCpsAq-58" value="+ start" style="text;strokeColor=#6c8ebf;fillColor=#dae8fc;align=left;verticalAlign=top;spacingLeft=4;spacingRight=4;overflow=hidden;rotatable=0;points=[[0,0.5],[1,0.5]];portConstraint=eastwest;" parent="2MJfzrfArd-E8yeCpsAq-52" vertex="1">
          <mxGeometry y="156" width="186" height="26" as="geometry" />
        </mxCell>
        <mxCell id="2MJfzrfArd-E8yeCpsAq-59" value="+ get_refresh_list" style="text;strokeColor=#6c8ebf;fillColor=#dae8fc;align=left;verticalAlign=top;spacingLeft=4;spacingRight=4;overflow=hidden;rotatable=0;points=[[0,0.5],[1,0.5]];portConstraint=eastwest;" parent="2MJfzrfArd-E8yeCpsAq-52" vertex="1">
          <mxGeometry y="182" width="186" height="26" as="geometry" />
        </mxCell>
        <mxCell id="2MJfzrfArd-E8yeCpsAq-60" value="+ regenerate_secrets" style="text;strokeColor=#6c8ebf;fillColor=#dae8fc;align=left;verticalAlign=top;spacingLeft=4;spacingRight=4;overflow=hidden;rotatable=0;points=[[0,0.5],[1,0.5]];portConstraint=eastwest;" parent="2MJfzrfArd-E8yeCpsAq-52" vertex="1">
          <mxGeometry y="208" width="186" height="26" as="geometry" />
        </mxCell>
        <mxCell id="2MJfzrfArd-E8yeCpsAq-61" value="+ send_new_secrets" style="text;strokeColor=#6c8ebf;fillColor=#dae8fc;align=left;verticalAlign=top;spacingLeft=4;spacingRight=4;overflow=hidden;rotatable=0;points=[[0,0.5],[1,0.5]];portConstraint=eastwest;" parent="2MJfzrfArd-E8yeCpsAq-52" vertex="1">
          <mxGeometry y="234" width="186" height="26" as="geometry" />
        </mxCell>
        <mxCell id="2MJfzrfArd-E8yeCpsAq-62" style="edgeStyle=orthogonalEdgeStyle;rounded=0;orthogonalLoop=1;jettySize=auto;html=1;entryX=0;entryY=0.5;entryDx=0;entryDy=0;exitX=0.5;exitY=0;exitDx=0;exitDy=0;" parent="AUfAbRyZPVYMz74NTfJ3-1" source="2MJfzrfArd-E8yeCpsAq-64" edge="1">
          <mxGeometry relative="1" as="geometry">
            <mxPoint x="658" y="283" as="targetPoint" />
            <Array as="points">
              <mxPoint x="634" y="283" />
            </Array>
          </mxGeometry>
        </mxCell>
        <mxCell id="2MJfzrfArd-E8yeCpsAq-63" style="edgeStyle=orthogonalEdgeStyle;rounded=0;orthogonalLoop=1;jettySize=auto;html=1;exitX=0.5;exitY=0;exitDx=0;exitDy=0;entryX=1;entryY=0.5;entryDx=0;entryDy=0;startArrow=classic;startFill=1;" parent="AUfAbRyZPVYMz74NTfJ3-1" source="2MJfzrfArd-E8yeCpsAq-64" target="2MJfzrfArd-E8yeCpsAq-82" edge="1">
          <mxGeometry relative="1" as="geometry" />
        </mxCell>
        <mxCell id="2MJfzrfArd-E8yeCpsAq-64" value="Secret" style="swimlane;fontStyle=0;childLayout=stackLayout;horizontal=1;startSize=26;fillColor=none;horizontalStack=0;resizeParent=1;resizeParentMax=0;resizeLast=0;collapsible=1;marginBottom=0;" parent="AUfAbRyZPVYMz74NTfJ3-1" vertex="1">
          <mxGeometry x="564" y="410" width="140" height="104" as="geometry" />
        </mxCell>
        <mxCell id="2MJfzrfArd-E8yeCpsAq-65" value="+ username: str" style="text;strokeColor=#82b366;fillColor=#d5e8d4;align=left;verticalAlign=top;spacingLeft=4;spacingRight=4;overflow=hidden;rotatable=0;points=[[0,0.5],[1,0.5]];portConstraint=eastwest;" parent="2MJfzrfArd-E8yeCpsAq-64" vertex="1">
          <mxGeometry y="26" width="140" height="26" as="geometry" />
        </mxCell>
        <mxCell id="2MJfzrfArd-E8yeCpsAq-66" value="+ identifier: str" style="text;strokeColor=#82b366;fillColor=#d5e8d4;align=left;verticalAlign=top;spacingLeft=4;spacingRight=4;overflow=hidden;rotatable=0;points=[[0,0.5],[1,0.5]];portConstraint=eastwest;" parent="2MJfzrfArd-E8yeCpsAq-64" vertex="1">
          <mxGeometry y="52" width="140" height="26" as="geometry" />
        </mxCell>
        <mxCell id="2MJfzrfArd-E8yeCpsAq-67" value="+ secret: str" style="text;strokeColor=#82b366;fillColor=#d5e8d4;align=left;verticalAlign=top;spacingLeft=4;spacingRight=4;overflow=hidden;rotatable=0;points=[[0,0.5],[1,0.5]];portConstraint=eastwest;" parent="2MJfzrfArd-E8yeCpsAq-64" vertex="1">
          <mxGeometry y="78" width="140" height="26" as="geometry" />
        </mxCell>
        <mxCell id="2MJfzrfArd-E8yeCpsAq-68" style="edgeStyle=orthogonalEdgeStyle;rounded=0;orthogonalLoop=1;jettySize=auto;html=1;" parent="AUfAbRyZPVYMz74NTfJ3-1" source="2MJfzrfArd-E8yeCpsAq-69" target="2MJfzrfArd-E8yeCpsAq-53" edge="1">
          <mxGeometry relative="1" as="geometry" />
        </mxCell>
        <mxCell id="2MJfzrfArd-E8yeCpsAq-69" value="Generator" style="swimlane;fontStyle=0;childLayout=stackLayout;horizontal=1;startSize=26;fillColor=none;horizontalStack=0;resizeParent=1;resizeParentMax=0;resizeLast=0;collapsible=1;marginBottom=0;" parent="AUfAbRyZPVYMz74NTfJ3-1" vertex="1">
          <mxGeometry x="658" y="244" width="140" height="52" as="geometry" />
        </mxCell>
        <mxCell id="2MJfzrfArd-E8yeCpsAq-70" value="+ regenerate" style="text;strokeColor=#6c8ebf;fillColor=#dae8fc;align=left;verticalAlign=top;spacingLeft=4;spacingRight=4;overflow=hidden;rotatable=0;points=[[0,0.5],[1,0.5]];portConstraint=eastwest;" parent="2MJfzrfArd-E8yeCpsAq-69" vertex="1">
          <mxGeometry y="26" width="140" height="26" as="geometry" />
        </mxCell>
        <mxCell id="2MJfzrfArd-E8yeCpsAq-71" value="GET /api/v1/services/agent" style="edgeStyle=orthogonalEdgeStyle;rounded=0;orthogonalLoop=1;jettySize=auto;html=1;exitX=0;exitY=0.5;exitDx=0;exitDy=0;startArrow=classic;startFill=1;" parent="AUfAbRyZPVYMz74NTfJ3-1" edge="1">
          <mxGeometry relative="1" as="geometry">
            <mxPoint x="203" y="250" as="sourcePoint" />
            <mxPoint x="-50" y="250" as="targetPoint" />
          </mxGeometry>
        </mxCell>
        <mxCell id="2MJfzrfArd-E8yeCpsAq-72" value="POST /api/v1/services/agent" style="edgeStyle=orthogonalEdgeStyle;rounded=0;orthogonalLoop=1;jettySize=auto;html=1;exitX=0;exitY=0.5;exitDx=0;exitDy=0;startArrow=classic;startFill=1;" parent="AUfAbRyZPVYMz74NTfJ3-1" edge="1">
          <mxGeometry relative="1" as="geometry">
            <mxPoint x="203" y="276" as="sourcePoint" />
            <mxPoint x="-50" y="276" as="targetPoint" />
            <Array as="points">
              <mxPoint x="-46" y="276" />
              <mxPoint x="-46" y="276" />
            </Array>
          </mxGeometry>
        </mxCell>
        <mxCell id="2MJfzrfArd-E8yeCpsAq-73" style="edgeStyle=orthogonalEdgeStyle;rounded=0;orthogonalLoop=1;jettySize=auto;html=1;entryX=0;entryY=0.5;entryDx=0;entryDy=0;" parent="AUfAbRyZPVYMz74NTfJ3-1" source="2MJfzrfArd-E8yeCpsAq-74" target="2MJfzrfArd-E8yeCpsAq-54" edge="1">
          <mxGeometry relative="1" as="geometry">
            <Array as="points">
              <mxPoint x="274" y="75" />
            </Array>
          </mxGeometry>
        </mxCell>
        <mxCell id="2MJfzrfArd-E8yeCpsAq-74" value="Connector" style="swimlane;fontStyle=0;childLayout=stackLayout;horizontal=1;startSize=26;fillColor=none;horizontalStack=0;resizeParent=1;resizeParentMax=0;resizeLast=0;collapsible=1;marginBottom=0;" parent="AUfAbRyZPVYMz74NTfJ3-1" vertex="1">
          <mxGeometry x="204" y="184" width="140" height="156" as="geometry" />
        </mxCell>
        <mxCell id="2MJfzrfArd-E8yeCpsAq-75" value="- token: str" style="text;align=left;verticalAlign=top;spacingLeft=4;spacingRight=4;overflow=hidden;rotatable=0;points=[[0,0.5],[1,0.5]];portConstraint=eastwest;" parent="2MJfzrfArd-E8yeCpsAq-74" vertex="1">
          <mxGeometry y="26" width="140" height="26" as="geometry" />
        </mxCell>
        <mxCell id="2MJfzrfArd-E8yeCpsAq-76" value="+ collect_users" style="text;strokeColor=#6c8ebf;fillColor=#dae8fc;align=left;verticalAlign=top;spacingLeft=4;spacingRight=4;overflow=hidden;rotatable=0;points=[[0,0.5],[1,0.5]];portConstraint=eastwest;" parent="2MJfzrfArd-E8yeCpsAq-74" vertex="1">
          <mxGeometry y="52" width="140" height="26" as="geometry" />
        </mxCell>
        <mxCell id="2MJfzrfArd-E8yeCpsAq-77" value="+ send_secrets" style="text;strokeColor=#6c8ebf;fillColor=#dae8fc;align=left;verticalAlign=top;spacingLeft=4;spacingRight=4;overflow=hidden;rotatable=0;points=[[0,0.5],[1,0.5]];portConstraint=eastwest;" parent="2MJfzrfArd-E8yeCpsAq-74" vertex="1">
          <mxGeometry y="78" width="140" height="26" as="geometry" />
        </mxCell>
        <mxCell id="2MJfzrfArd-E8yeCpsAq-78" value="+ send_status" style="text;strokeColor=#6c8ebf;fillColor=#dae8fc;align=left;verticalAlign=top;spacingLeft=4;spacingRight=4;overflow=hidden;rotatable=0;points=[[0,0.5],[1,0.5]];portConstraint=eastwest;" parent="2MJfzrfArd-E8yeCpsAq-74" vertex="1">
          <mxGeometry y="104" width="140" height="26" as="geometry" />
        </mxCell>
        <mxCell id="2MJfzrfArd-E8yeCpsAq-88" value="+ check_connection" style="text;strokeColor=#6c8ebf;fillColor=#dae8fc;align=left;verticalAlign=top;spacingLeft=4;spacingRight=4;overflow=hidden;rotatable=0;points=[[0,0.5],[1,0.5]];portConstraint=eastwest;" parent="2MJfzrfArd-E8yeCpsAq-74" vertex="1">
          <mxGeometry y="130" width="140" height="26" as="geometry" />
        </mxCell>
        <mxCell id="2MJfzrfArd-E8yeCpsAq-79" style="edgeStyle=orthogonalEdgeStyle;rounded=0;orthogonalLoop=1;jettySize=auto;html=1;exitX=0;exitY=0.5;exitDx=0;exitDy=0;startArrow=classic;startFill=1;" parent="AUfAbRyZPVYMz74NTfJ3-1" source="2MJfzrfArd-E8yeCpsAq-78" edge="1">
          <mxGeometry relative="1" as="geometry">
            <mxPoint x="-50" y="301" as="targetPoint" />
          </mxGeometry>
        </mxCell>
        <mxCell id="2MJfzrfArd-E8yeCpsAq-80" value="POST /api/v1/services/agent/status" style="edgeLabel;html=1;align=center;verticalAlign=middle;resizable=0;points=[];" parent="2MJfzrfArd-E8yeCpsAq-79" vertex="1" connectable="0">
          <mxGeometry x="0.2647" y="2" relative="1" as="geometry">
            <mxPoint x="34" y="-2" as="offset" />
          </mxGeometry>
        </mxCell>
        <mxCell id="2MJfzrfArd-E8yeCpsAq-81" value="SecretStatus" style="swimlane;fontStyle=0;childLayout=stackLayout;horizontal=1;startSize=26;fillColor=none;horizontalStack=0;resizeParent=1;resizeParentMax=0;resizeLast=0;collapsible=1;marginBottom=0;" parent="AUfAbRyZPVYMz74NTfJ3-1" vertex="1">
          <mxGeometry x="374" y="340" width="140" height="104" as="geometry" />
        </mxCell>
        <mxCell id="2MJfzrfArd-E8yeCpsAq-82" value="+ secret: Secret" style="text;strokeColor=#82b366;fillColor=#d5e8d4;align=left;verticalAlign=top;spacingLeft=4;spacingRight=4;overflow=hidden;rotatable=0;points=[[0,0.5],[1,0.5]];portConstraint=eastwest;" parent="2MJfzrfArd-E8yeCpsAq-81" vertex="1">
          <mxGeometry y="26" width="140" height="26" as="geometry" />
        </mxCell>
        <mxCell id="2MJfzrfArd-E8yeCpsAq-83" value="+ ok: bool" style="text;strokeColor=#82b366;fillColor=#d5e8d4;align=left;verticalAlign=top;spacingLeft=4;spacingRight=4;overflow=hidden;rotatable=0;points=[[0,0.5],[1,0.5]];portConstraint=eastwest;" parent="2MJfzrfArd-E8yeCpsAq-81" vertex="1">
          <mxGeometry y="52" width="140" height="26" as="geometry" />
        </mxCell>
        <mxCell id="2MJfzrfArd-E8yeCpsAq-84" value="+ errors: list[str]" style="text;strokeColor=#82b366;fillColor=#d5e8d4;align=left;verticalAlign=top;spacingLeft=4;spacingRight=4;overflow=hidden;rotatable=0;points=[[0,0.5],[1,0.5]];portConstraint=eastwest;" parent="2MJfzrfArd-E8yeCpsAq-81" vertex="1">
          <mxGeometry y="78" width="140" height="26" as="geometry" />
        </mxCell>
        <mxCell id="2MJfzrfArd-E8yeCpsAq-85" style="edgeStyle=orthogonalEdgeStyle;rounded=0;orthogonalLoop=1;jettySize=auto;html=1;entryX=0.5;entryY=0;entryDx=0;entryDy=0;startArrow=none;startFill=0;" parent="AUfAbRyZPVYMz74NTfJ3-1" source="2MJfzrfArd-E8yeCpsAq-57" target="2MJfzrfArd-E8yeCpsAq-81" edge="1">
          <mxGeometry relative="1" as="geometry">
            <Array as="points">
              <mxPoint x="604" y="153" />
              <mxPoint x="604" y="300" />
              <mxPoint x="444" y="300" />
            </Array>
          </mxGeometry>
        </mxCell>
        <mxCell id="2MJfzrfArd-E8yeCpsAq-89" value="django&amp;nbsp;" style="rounded=1;whiteSpace=wrap;html=1;" parent="AUfAbRyZPVYMz74NTfJ3-1" vertex="1">
          <mxGeometry x="-160" y="236" width="104" height="104" as="geometry" />
        </mxCell>
        <mxCell id="2MJfzrfArd-E8yeCpsAq-90" value="GET /api/v1/services/agent/check" style="edgeStyle=orthogonalEdgeStyle;rounded=0;orthogonalLoop=1;jettySize=auto;html=1;exitX=0;exitY=0.5;exitDx=0;exitDy=0;startArrow=none;startFill=0;" parent="AUfAbRyZPVYMz74NTfJ3-1" source="2MJfzrfArd-E8yeCpsAq-88" edge="1">
          <mxGeometry relative="1" as="geometry">
            <mxPoint x="-50" y="327" as="targetPoint" />
          </mxGeometry>
        </mxCell>
      </root>
    </mxGraphModel>
  </diagram>
</mxfile>
